<svg id="Layer_1" data-name="Layer 1" xmlns="http://www.w3.org/2000/svg" viewBox="0 0 86.38 38.5"><path d="M32.57,35.24a2.71,2.71,0,0,1-.84-1.42,13.19,13.19,0,0,1-.24-3l0-2.36V10L21.58,11.2v1.45l.41,0a5,5,0,0,1,2,.44,2.92,2.92,0,0,1,1.13,1.11,4.44,4.44,0,0,1,.61,1.91,43.28,43.28,0,0,1,.16,4.44v7.69c0,1.8-.05,3.2-.14,4.14a6.32,6.32,0,0,1-.45,2,2.74,2.74,0,0,1-1.13,1.34,7.38,7.38,0,0,1-2.53.65l-.38.05v1.48H35.93V36.48l-.36-.06a6.11,6.11,0,0,1-3-1.18"/><path d="M58.16,31.43a9.66,9.66,0,0,1-1.81,3.1,6.43,6.43,0,0,1-4.66,1.79,8.07,8.07,0,0,1-6-2.69,12.23,12.23,0,0,1-2.62-4.29,15,15,0,0,1-1-5.28,18.48,18.48,0,0,1,1.07-6,13.51,13.51,0,0,1,1.61-3.32A8.07,8.07,0,0,1,47,12.54a5.59,5.59,0,0,1,3.16-1,3.4,3.4,0,0,1,2.1.63,2.24,2.24,0,0,1,.65.73,13.28,13.28,0,0,1,.67,1.81C54.29,16.92,55.44,18,57,18a2.55,2.55,0,0,0,1.9-.81,2.69,2.69,0,0,0,.78-2A4,4,0,0,0,58,12.14,11.6,11.6,0,0,0,50.58,10a16,16,0,0,0-6.21,1.19,13,13,0,0,0-4.84,3.46,14.66,14.66,0,0,0-2.74,4.73,16.52,16.52,0,0,0-1,5.59,13.53,13.53,0,0,0,3.62,9.63c2.47,2.58,5.91,3.88,10.23,3.88A11.74,11.74,0,0,0,56.08,37a9.18,9.18,0,0,0,3.52-5l.13-.41-1.42-.49Z"/><path d="M69.81,13.74a5.61,5.61,0,0,1,4.36-2.16,5,5,0,0,1,2.75.82A6.21,6.21,0,0,1,79,14.67a11,11,0,0,1,1.06,4.17H67.6a9.7,9.7,0,0,1,2.21-5.1M84.93,29.91l-.13.42A8.45,8.45,0,0,1,83,33.66a6.43,6.43,0,0,1-2.36,1.46,8.53,8.53,0,0,1-3,.54,9.46,9.46,0,0,1-4.16-1,9.62,9.62,0,0,1-3.32-2.63A12.44,12.44,0,0,1,68,27.9a17.88,17.88,0,0,1-.78-5.19c0-.38,0-1,.1-1.78H85.68v-.44a10.15,10.15,0,0,0-2.39-6.85,10.29,10.29,0,0,0-3.76-2.7,12.44,12.44,0,0,0-4.8-.92,13.56,13.56,0,0,0-8.62,3A13.78,13.78,0,0,0,60.92,24.4a14.57,14.57,0,0,0,2.74,9,12.33,12.33,0,0,0,4.83,3.89,16.78,16.78,0,0,0,6.78,1.25,12.69,12.69,0,0,0,7.36-1.94,9.17,9.17,0,0,0,3.66-5.78l.09-.38Z"/><path d="M24.37,6.07A3.59,3.59,0,0,0,27,7.7a3.16,3.16,0,0,0,2.37-.58A3,3,0,0,0,30.51,5a3.77,3.77,0,0,0-1.05-3.13,4.56,4.56,0,0,0-.85-.72A4.33,4.33,0,0,0,27.76.7,8.55,8.55,0,0,0,25.34.07,13.38,13.38,0,0,0,23.89,0s-10.36.35-14,10.72c-.08.2-.17.39-.25.59-.09-.83-.23-1.72-.41-2.68l-.08-.41L.34,9.46V10.9l.41,0a5.37,5.37,0,0,1,2,.43,2.88,2.88,0,0,1,1.11,1.11A2.69,2.69,0,0,1,4.47,14c.11.82.16,4.43.16,6.63v7.68c0,1.8,0,3.2-.14,4.14a6.32,6.32,0,0,1-.45,2,2.74,2.74,0,0,1-1.13,1.34,7.38,7.38,0,0,1-2.53.65L0,36.46v1.48H14.69V36.48l-.35-.06a6.11,6.11,0,0,1-3-1.18,2.71,2.71,0,0,1-.84-1.42,13.39,13.39,0,0,1-.24-3l0-2.37V22.6a46.57,46.57,0,0,1,.74-8c0-.26.1-.53.15-.78a30.72,30.72,0,0,1,2-5.18A15.7,15.7,0,0,1,17.35,4c4.53-2.63,7,2.06,7,2.06"/></svg>